<?xml version="1.0" standalone="no"?><!DOCTYPE svg PUBLIC "-//W3C//DTD SVG 1.1//EN" "http://www.w3.org/Graphics/SVG/1.1/DTD/svg11.dtd"><svg t="1618054461704" class="icon" viewBox="0 0 1024 1024" version="1.1" xmlns="http://www.w3.org/2000/svg" p-id="3064" xmlns:xlink="http://www.w3.org/1999/xlink" width="200" height="200"><defs><style type="text/css"></style></defs><path d="M957.897 158.674l-837.566 0c-25.699 0-46.531 20.833-46.531 46.531l0 558.378c0 25.697 20.833 46.531 46.531 46.531l837.566 0c25.699 0 46.531-20.836 46.531-46.531l0-558.38c-0.001-25.699-20.833-46.53-46.531-46.53zM826.682 330.4c0 12.85-10.418 23.265-23.265 23.265l-560.401 0c-12.848 0-23.265-10.415-23.265-23.265l0-34.898c0-12.85 10.418-23.265 23.265-23.265l560.401 0c12.848 0 23.265 10.415 23.265 23.265l0 34.898z" p-id="3065" fill="#bfbfbf"></path></svg>