<?xml version="1.0" standalone="no"?><!DOCTYPE svg PUBLIC "-//W3C//DTD SVG 1.1//EN" "http://www.w3.org/Graphics/SVG/1.1/DTD/svg11.dtd"><svg t="1617773920240" class="icon" viewBox="0 0 1024 1024" version="1.1" xmlns="http://www.w3.org/2000/svg" p-id="5292" xmlns:xlink="http://www.w3.org/1999/xlink" width="200" height="200"><defs><style type="text/css"></style></defs><path d="M768 952.32h-512c-57.344 0-102.4-45.056-102.4-102.4v-675.84c0-57.344 45.056-102.4 102.4-102.4h512c57.344 0 102.4 45.056 102.4 102.4v677.888c0 55.296-47.104 100.352-102.4 100.352z m-512-839.68c-34.816 0-61.44 26.624-61.44 61.44v675.84c0 34.816 26.624 61.44 61.44 61.44h512c32.768 0 61.44-26.624 61.44-59.392V174.08c0-34.816-26.624-61.44-61.44-61.44h-512z" p-id="5293"></path><path d="M714.752 530.432H309.248c-12.288 0-20.48-8.192-20.48-20.48s8.192-20.48 20.48-20.48h405.504c12.288 0 20.48 8.192 20.48 20.48s-8.192 20.48-20.48 20.48zM714.752 348.16H309.248c-12.288 0-20.48-8.192-20.48-20.48s8.192-20.48 20.48-20.48h405.504c12.288 0 20.48 8.192 20.48 20.48s-8.192 20.48-20.48 20.48zM598.016 716.8H309.248c-12.288 0-20.48-8.192-20.48-20.48s8.192-20.48 20.48-20.48h288.768c12.288 0 20.48 8.192 20.48 20.48s-8.192 20.48-20.48 20.48z" p-id="5294"></path></svg>