<?xml version="1.0" standalone="no"?><!DOCTYPE svg PUBLIC "-//W3C//DTD SVG 1.1//EN" "http://www.w3.org/Graphics/SVG/1.1/DTD/svg11.dtd"><svg t="1617964861651" class="icon" viewBox="0 0 1024 1024" version="1.1" xmlns="http://www.w3.org/2000/svg" p-id="3353" xmlns:xlink="http://www.w3.org/1999/xlink" width="200" height="200"><defs><style type="text/css"></style></defs><path d="M299.1872 357.636267c0.1536 2.321067 0.302933 4.642133 0.529067 6.941866 0.136533 1.403733 0.3328 2.7904 0.494933 4.181334 0.2432 2.0608 0.482133 4.1216 0.785067 6.161066 0.2176 1.476267 0.482133 2.9312 0.733866 4.398934 0.328533 1.9328 0.6528 3.8656 1.032534 5.781333 0.298667 1.506133 0.635733 2.999467 0.964266 4.4928 0.405333 1.8432 0.8192 3.6864 1.271467 5.512533 0.375467 1.514667 0.785067 3.016533 1.194667 4.522667a198.464 198.464 0 0 0 4.650666 14.920533 201.275733 201.275733 0 0 0 3.584 9.408c0.610133 1.493333 1.224533 2.978133 1.8688 4.4544 0.686933 1.582933 1.408 3.153067 2.133334 4.718934 0.686933 1.480533 1.373867 2.961067 2.094933 4.420266 0.746667 1.514667 1.5232 3.008 2.304 4.497067 0.768 1.472 1.531733 2.944 2.3296 4.394667 0.7936 1.4336 1.6256 2.845867 2.449067 4.258133 0.853333 1.463467 1.698133 2.935467 2.5856 4.3776 0.8192 1.3312 1.681067 2.632533 2.530133 3.946667 0.955733 1.480533 1.8944 2.9696 2.888533 4.424533 0.797867 1.169067 1.6384 2.304 2.461867 3.460267 1.1008 1.5488 2.184533 3.114667 3.328 4.6336 0.418133 0.554667 0.861867 1.083733 1.284267 1.634133a216.277333 216.277333 0 0 0 10.0992 12.215467c0.290133 0.324267 0.5632 0.6656 0.853333 0.9856 1.5104 1.672533 3.080533 3.293867 4.642133 4.919466 0.708267 0.738133 1.399467 1.4976 2.120534 2.222934 1.5104 1.527467 3.072 3.003733 4.625066 4.484266 0.8192 0.776533 1.621333 1.570133 2.449067 2.333867 1.553067 1.4336 3.1488 2.820267 4.7488 4.206933 0.874667 0.759467 1.7408 1.531733 2.628267 2.2784 1.6128 1.3568 3.259733 2.670933 4.910933 3.976534 0.913067 0.721067 1.821867 1.450667 2.747733 2.158933 1.681067 1.284267 3.387733 2.5344 5.1072 3.771733a186.538667 186.538667 0 0 0 8.149334 5.5808 200.1792 200.1792 0 0 0 8.4096 5.2096 231.978667 231.978667 0 0 0 8.669866 4.8256c0.917333 0.482133 1.838933 0.9472 2.7648 1.416534 2.0352 1.032533 4.0832 2.048 6.152534 3.016533 0.8576 0.401067 1.728 0.7808 2.589866 1.173333 2.171733 0.981333 4.352 1.9456 6.562134 2.8544 0.7424 0.3072 1.493333 0.5888 2.24 0.8832 2.359467 0.938667 4.727467 1.860267 7.125333 2.717867 0.507733 0.183467 1.024 0.341333 1.536 0.520533a212.352 212.352 0 0 0 46.472533 10.530134c7.786667 0.861867 15.688533 1.339733 23.701334 1.339733 7.893333 0 15.675733-0.4608 23.342933-1.297067h-0.0128a212.164267 212.164267 0 0 0 47.266133-10.7136c0.341333-0.119467 0.6912-0.226133 1.032534-0.349866 2.513067-0.896 4.996267-1.860267 7.466666-2.845867 0.635733-0.256 1.275733-0.494933 1.9072-0.750933a214.9248 214.9248 0 0 0 6.818134-2.965334c0.776533-0.354133 1.5616-0.695467 2.333866-1.053866 2.141867-0.9984 4.258133-2.048 6.3616-3.118934 0.853333-0.4352 1.710933-0.866133 2.56-1.309866a221.013333 221.013333 0 0 0 14.3872-8.2944 213.162667 213.162667 0 0 0 8.157867-5.397334c0.904533-0.6272 1.796267-1.271467 2.688-1.911466 1.757867-1.262933 3.502933-2.538667 5.2224-3.8528 0.887467-0.6784 1.757867-1.378133 2.632533-2.069334 1.685333-1.3312 3.3664-2.6752 5.013334-4.0576 0.853333-0.7168 1.685333-1.4592 2.530133-2.1888 1.629867-1.412267 3.255467-2.8288 4.842667-4.292266 0.789333-0.7296 1.553067-1.4848 2.333866-2.222934 1.595733-1.514667 3.191467-3.029333 4.736-4.590933 0.669867-0.6784 1.314133-1.3824 1.975467-2.069333 1.6128-1.672533 3.229867-3.345067 4.7872-5.0688 0.170667-0.192 0.3328-0.392533 0.507733-0.584534a213.6704 213.6704 0 0 0 10.581334-12.7872c0.3712-0.4864 0.763733-0.951467 1.130666-1.437866 1.1648-1.5488 2.2656-3.140267 3.387734-4.718934 0.797867-1.122133 1.621333-2.231467 2.397866-3.370666 1.002667-1.472 1.954133-2.9824 2.922667-4.48 0.836267-1.297067 1.6896-2.581333 2.496-3.895467 0.891733-1.450667 1.7408-2.935467 2.602667-4.407467 0.8192-1.408 1.646933-2.807467 2.432-4.232533 0.802133-1.454933 1.565867-2.9312 2.338133-4.4032 0.776533-1.489067 1.557333-2.9824 2.299733-4.4928 0.721067-1.463467 1.408-2.944 2.0992-4.424533 0.725333-1.5616 1.442133-3.127467 2.129067-4.7104 0.644267-1.476267 1.258667-2.9696 1.8688-4.462934a212.8896 212.8896 0 0 0 3.579733-9.403733 231.3088 231.3088 0 0 0 3.144534-9.617067c0.529067-1.7536 1.024-3.524267 1.506133-5.2992 0.4096-1.501867 0.8192-3.003733 1.194667-4.522666 0.452267-1.826133 0.866133-3.669333 1.271466-5.512534 0.328533-1.493333 0.6656-2.986667 0.964267-4.4928 0.379733-1.915733 0.704-3.848533 1.032533-5.781333 0.247467-1.463467 0.516267-2.922667 0.733867-4.398933 0.302933-2.039467 0.5376-4.104533 0.785067-6.161067 0.1664-1.3952 0.3584-2.781867 0.494933-4.181333 0.226133-2.299733 0.375467-4.6208 0.529067-6.941867 0.0768-1.181867 0.192-2.3552 0.251733-3.5456a215.4496 215.4496 0 0 0-0.832-32.4352c-10.197333-100.4032-90.018133-180.224-190.421333-190.421333-7.172267-0.7296-14.446933-1.1008-21.8112-1.1008s-14.638933 0.3712-21.8112 1.1008c-100.4032 10.197333-180.224 90.018133-190.421334 190.421333a217.224533 217.224533 0 0 0-0.823466 32.413867c0.059733 1.186133 0.174933 2.359467 0.251733 3.5456z"  p-id="3354"></path><path d="M870.229333 864.448c-3.063467-187.357867-149.806933-339.694933-334.8864-351.611733a215.240533 215.240533 0 0 1-23.342933 1.297066c-8.017067 0-15.918933-0.482133-23.701333-1.339733l0.366933 0.046933c-185.079467 11.908267-331.831467 164.245333-334.8992 351.611734A8.704 8.704 0 0 0 153.6 866.133333v25.6a8.533333 8.533333 0 0 0 8.533333 8.533334h699.733334a8.533333 8.533333 0 0 0 8.533333-8.533334v-25.6c0-0.576-0.059733-1.1392-0.170667-1.685333z" p-id="3355"></path></svg>