<?xml version="1.0" standalone="no"?><!DOCTYPE svg PUBLIC "-//W3C//DTD SVG 1.1//EN" "http://www.w3.org/Graphics/SVG/1.1/DTD/svg11.dtd"><svg t="1617625479189" class="icon" viewBox="0 0 1024 1024" version="1.1" xmlns="http://www.w3.org/2000/svg" p-id="1153" xmlns:xlink="http://www.w3.org/1999/xlink" width="200" height="200"><defs><style type="text/css"></style></defs><path d="M470.4 693.76c0-22.272 18.56-40.32 41.6-40.32 22.912 0 41.6 18.048 41.6 40.32S535.04 734.08 512 734.08c-11.008 0-21.632-4.224-29.44-11.776-7.68-7.68-12.16-17.92-12.16-28.544z m394.752 121.088c-11.008 0-21.632-4.224-29.44-11.776-7.808-7.552-12.16-17.792-12.16-28.544V491.776H200.448V774.4c0 66.944 55.808 121.088 124.672 121.088h477.824c6.912-0.128 13.952-0.768 20.736-2.048v2.048c15.872-0.256 30.464 8.32 37.632 22.016 7.168 13.696 5.76 30.208-3.712 42.496-9.472 12.288-25.344 18.304-40.96 15.488-4.608 0.256-9.088 0.64-13.824 0.64H324.992c-114.688 0-207.744-90.368-207.744-201.856V411.136h789.376V774.4c0 10.752-4.352 20.992-12.16 28.544-7.68 7.68-18.304 11.904-29.312 11.904z m-62.336-444.16c-22.784-1.792-41.344-18.432-44.8-40.32h-0.512C737.408 213.76 633.6 128.512 512 128.512c-121.6 0-225.408 85.376-245.504 201.856h0.128c-3.712 22.016-22.528 38.656-45.44 40.32-15.232 0-29.184-8.192-36.48-21.12-7.296-13.056-6.656-28.8 1.664-41.216C216.832 156.928 353.28 47.744 512 47.744s295.168 109.312 325.632 260.608c3.84 6.784 6.016 14.336 6.784 22.016 0 10.752-4.352 20.992-12.16 28.544-7.808 7.552-18.432 11.776-29.44 11.776z m0 0" p-id="1154"></path></svg>