<?xml version="1.0" standalone="no"?><!DOCTYPE svg PUBLIC "-//W3C//DTD SVG 1.1//EN" "http://www.w3.org/Graphics/SVG/1.1/DTD/svg11.dtd"><svg t="1617626214344" class="icon" viewBox="0 0 1024 1024" version="1.1" xmlns="http://www.w3.org/2000/svg" p-id="2399" xmlns:xlink="http://www.w3.org/1999/xlink" width="200" height="200"><defs><style type="text/css"></style></defs><path d="M529.066667 204.8a324.266667 324.266667 0 1 1 0 648.533333 324.266667 324.266667 0 0 1 0-648.533333z m0 34.133333a290.133333 290.133333 0 1 0 0 580.266667 290.133333 290.133333 0 0 0 0-580.266667z" p-id="2400"></path><path d="M633.6512 480.802133a68.266667 68.266667 0 0 1 0 96.529067l-56.32 56.32a68.266667 68.266667 0 0 1-96.529067 0l-56.32-56.32a68.266667 68.266667 0 0 1 0-96.529067l56.32-56.32a68.266667 68.266667 0 0 1 96.529067 0l56.32 56.32z m-24.132267 24.132267l-56.32-56.32a34.133333 34.133333 0 0 0-45.294933-2.6624l-2.9696 2.6624-56.32 56.32a34.133333 34.133333 0 0 0-2.6624 45.294933l2.6624 2.9696 56.32 56.32a34.133333 34.133333 0 0 0 45.294933 2.6624l2.9696-2.6624 56.32-56.32a34.133333 34.133333 0 0 0 2.6624-45.294933l-2.6624-2.9696z" p-id="2401"></path></svg>