<?xml version="1.0" standalone="no"?><!DOCTYPE svg PUBLIC "-//W3C//DTD SVG 1.1//EN" "http://www.w3.org/Graphics/SVG/1.1/DTD/svg11.dtd"><svg t="1617773901748" class="icon" viewBox="0 0 1024 1024" version="1.1" xmlns="http://www.w3.org/2000/svg" p-id="3431" xmlns:xlink="http://www.w3.org/1999/xlink" width="200" height="200"><defs><style type="text/css"></style></defs><path d="M587.8 249.6C718.85 283.37 816 402.56 816 544a303.17 303.17 0 0 1-11.13 81.55 79.46 79.46 0 0 1 24.27 9.14c1.9 1.09 3.73 2.28 5.52 3.51A337.64 337.64 0 0 0 848 544a336.29 336.29 0 0 0-256.28-326.48c0.18 2.15 0.29 4.32 0.29 6.52a79.51 79.51 0 0 1-4.21 25.56zM728.93 756.7a303.41 303.41 0 0 1-433.86 0 79.3 79.3 0 0 1-20.16 16.58 96.312 96.312 0 0 1-5.67 3c1.71 1.79 3.44 3.57 5.19 5.32a335.95 335.95 0 0 0 475.13 0c1.76-1.75 3.48-3.53 5.2-5.32-1.92-0.91-3.81-1.89-5.67-3a79.3 79.3 0 0 1-20.16-16.58zM219.16 625.56A303.17 303.17 0 0 1 208 544c0-141.45 97.12-260.64 228.17-294.41A79.51 79.51 0 0 1 432 224c0-2.2 0.11-4.37 0.28-6.52A336.27 336.27 0 0 0 176 544a337.64 337.64 0 0 0 13.34 94.2c1.79-1.23 3.62-2.42 5.52-3.51a79.36 79.36 0 0 1 24.3-9.13z"  p-id="3432"></path><path d="M512 176a48.09 48.09 0 0 1 46.26 35.18 336.82 336.82 0 0 1 33.46 6.32 80 80 0 0 0-159.45 0 337.56 337.56 0 0 1 33.47-6.32A48.09 48.09 0 0 1 512 176zM512 304.05a80.13 80.13 0 0 0 75.8-54.45 303.72 303.72 0 0 0-31.8-6.37 48 48 0 0 1-88 0 303.72 303.72 0 0 0-31.8 6.37 80.13 80.13 0 0 0 75.8 54.45z"  p-id="3433"></path><path d="M436.2 249.6a303.72 303.72 0 0 1 31.8-6.37 47.94 47.94 0 0 1-2.26-32 337.56 337.56 0 0 0-33.47 6.32c-0.17 2.15-0.28 4.32-0.28 6.52a79.51 79.51 0 0 0 4.21 25.53zM560 224a47.81 47.81 0 0 1-4 19.19 303.72 303.72 0 0 1 31.8 6.37A79.51 79.51 0 0 0 592 224c0-2.2-0.11-4.37-0.29-6.52a336.82 336.82 0 0 0-33.46-6.32A48.13 48.13 0 0 1 560 224zM193.32 728a48 48 0 0 1 7.23-57.57 333.25 333.25 0 0 1-11.18-32.22 80 80 0 0 0 79.87 138 339.09 339.09 0 0 1-22.34-25.78A48.09 48.09 0 0 1 193.32 728zM304.19 664a80.12 80.12 0 0 0-85-38.42 302.21 302.21 0 0 0 10.37 30.73 48 48 0 0 1 44.08 76.09 306 306 0 0 0 21.46 24.32 80.13 80.13 0 0 0 9.09-92.72z"  p-id="3434"></path><path d="M295.07 756.7a306 306 0 0 1-21.46-24.32 47.84 47.84 0 0 1-26.71 18.09 339.09 339.09 0 0 0 22.34 25.78c1.91-0.91 3.8-1.89 5.67-3a79.3 79.3 0 0 0 20.16-16.55zM210.89 662.41a47.81 47.81 0 0 1 18.64-6.12 302.21 302.21 0 0 1-10.37-30.73 79.36 79.36 0 0 0-24.27 9.14c-1.9 1.09-3.73 2.28-5.52 3.51a333.25 333.25 0 0 0 11.18 32.22 48.19 48.19 0 0 1 10.34-8.02zM747.52 680a48 48 0 0 1 41.66-24 46.74 46.74 0 0 1 5.28 0.31 300.82 300.82 0 0 0 10.38-30.74 80 80 0 0 0-75.91 131.13 306 306 0 0 0 21.46-24.32 48.1 48.1 0 0 1-2.87-52.38zM866.39 683.28a79.46 79.46 0 0 0-31.76-45.07 333.25 333.25 0 0 1-11.18 32.22 48 48 0 0 1-46.36 80.06q-10.44 13.35-22.33 25.76A79.27 79.27 0 0 0 789 784a80.75 80.75 0 0 0 20.84-2.76 80 80 0 0 0 56.58-98z"  p-id="3435"></path><path d="M765.09 745.57a47.83 47.83 0 0 1-14.7-13.19 306 306 0 0 1-21.46 24.32 79.3 79.3 0 0 0 20.16 16.58c1.86 1.08 3.75 2.06 5.67 3q11.87-12.39 22.33-25.76a48.49 48.49 0 0 1-12-4.95zM804.84 625.56a300.82 300.82 0 0 1-10.38 30.74 47.93 47.93 0 0 1 29 14.13 333.25 333.25 0 0 0 11.18-32.22c-1.79-1.23-3.62-2.42-5.52-3.51a79.46 79.46 0 0 0-24.28-9.14z"  p-id="3436"></path></svg>