<?xml version="1.0" standalone="no"?><!DOCTYPE svg PUBLIC "-//W3C//DTD SVG 1.1//EN" "http://www.w3.org/Graphics/SVG/1.1/DTD/svg11.dtd"><svg t="1617877367854" class="icon" viewBox="0 0 1024 1024" version="1.1" xmlns="http://www.w3.org/2000/svg" p-id="6442" xmlns:xlink="http://www.w3.org/1999/xlink" width="200" height="200"><defs><style type="text/css"></style></defs><path d="M512 989.866667c263.918933 0 477.866667-213.947733 477.866667-477.866667S775.918933 34.133333 512 34.133333 34.133333 248.081067 34.133333 512s213.947733 477.866667 477.866667 477.866667z m0 34.133333C229.239467 1024 0 794.760533 0 512 0 229.239467 229.239467 0 512 0c282.760533 0 512 229.239467 512 512 0 282.760533-229.239467 512-512 512z m269.550933-434.653867a21.845333 21.845333 0 0 1-6.519466 30.242134l-250.948267 161.3824a23.210667 23.210667 0 0 1-5.632 2.8672c-0.068267 0.1024-0.136533 0.1024-0.3072 0.170666l-0.443733 0.136534a2.218667 2.218667 0 0 0-0.682667 0.170666h-0.068267a22.971733 22.971733 0 0 1-5.12 0.750934h-0.989866a23.6544 23.6544 0 0 1-5.12-0.750934h-0.034134c-0.238933 0-0.477867-0.068267-0.682666-0.170666l-0.477867-0.136534-0.3072-0.170666a23.210667 23.210667 0 0 1-5.632-2.8672l-249.617067-160.631467a21.9136 21.9136 0 0 1 23.722667-36.7616l238.6944 153.531733 239.889067-154.282666a21.981867 21.981867 0 0 1 30.276266 6.519466z m0-88.576a21.9136 21.9136 0 0 1-6.621866 30.3104l-250.845867 161.28a23.210667 23.210667 0 0 1-5.632 2.901334c-0.068267 0.068267-0.136533 0.068267-0.3072 0.136533-0.136533 0.1024-0.3072 0.1024-0.443733 0.170667a2.218667 2.218667 0 0 0-0.682667 0.136533h-0.068267a22.971733 22.971733 0 0 1-5.12 0.785067h-0.989866a23.6544 23.6544 0 0 1-5.12-0.785067h-0.034134a2.218667 2.218667 0 0 1-0.682666-0.136533c-0.170667-0.068267-0.341333-0.068267-0.477867-0.170667-0.068267-0.068267-0.136533-0.068267-0.3072-0.136533a23.210667 23.210667 0 0 1-5.632-2.901334L248.968533 531.797333a21.9136 21.9136 0 0 1 23.722667-36.795733l238.6944 153.4976 239.889067-154.248533a21.981867 21.981867 0 0 1 30.276266 6.5536z m-6.519466-96.3584A21.8112 21.8112 0 0 1 785.066667 423.253333a21.8112 21.8112 0 0 1-10.0352 18.8416l-250.88 161.3824a23.210667 23.210667 0 0 1-5.632 2.901334c-0.068267 0.068267-0.136533 0.068267-0.3072 0.136533-0.136533 0.068267-0.273067 0.068267-0.443734 0.170667a2.218667 2.218667 0 0 0-0.682666 0.136533h-0.068267a22.971733 22.971733 0 0 1-5.12 0.750933h-0.989867a23.6544 23.6544 0 0 1-5.085866-0.750933h-0.068267a2.218667 2.218667 0 0 1-0.682667-0.136533l-0.477866-0.170667c-0.068267-0.068267-0.136533-0.068267-0.3072-0.136533a23.210667 23.210667 0 0 1-5.632-2.901334l-249.617067-160.631466a21.845333 21.845333 0 0 1-9.966933-19.592534 21.742933 21.742933 0 0 1 9.966933-19.592533l249.617067-160.631467a23.210667 23.210667 0 0 1 5.632-2.8672c0.1024-0.1024 0.170667-0.1024 0.341333-0.170666l0.443733-0.136534c0.2048 0 0.443733-0.1024 0.682667-0.170666h0.068267c1.604267-0.443733 3.413333-0.682667 5.12-0.750934h0.955733c1.706667 0.068267 3.413333 0.3072 5.12 0.750934h0.068267c0.238933 0 0.443733 0.068267 0.682666 0.170666l0.443734 0.136534 0.341333 0.170666a23.210667 23.210667 0 0 1 5.597867 2.8672l250.88 161.3824z" p-id="6443"></path></svg>