<?xml version="1.0" standalone="no"?><!DOCTYPE svg PUBLIC "-//W3C//DTD SVG 1.1//EN" "http://www.w3.org/Graphics/SVG/1.1/DTD/svg11.dtd"><svg t="1617773936703" class="icon" viewBox="0 0 1024 1024" version="1.1" xmlns="http://www.w3.org/2000/svg" p-id="5865" xmlns:xlink="http://www.w3.org/1999/xlink" width="200" height="200"><defs><style type="text/css"></style></defs><path d="M331.264 514.56V179.2A26.112 26.112 0 0 0 307.2 153.6a25.6 25.6 0 0 0-25.6 25.6v335.872a128 128 0 0 0 0 249.856v79.872a25.6 25.6 0 0 0 25.6 25.6 25.6 25.6 0 0 0 25.6-25.6V768a128 128 0 0 0 0-251.392z m0 194.56a82.432 82.432 0 0 1-24.576 4.096 67.584 67.584 0 0 1-27.136-5.12 76.8 76.8 0 0 1 0-143.872 67.584 67.584 0 0 1 27.136-5.12 82.432 82.432 0 0 1 24.576 4.096 76.8 76.8 0 0 1 0 145.92zM740.864 514.56V179.2A26.112 26.112 0 0 0 716.8 153.6a25.6 25.6 0 0 0-25.6 25.6v335.872a128 128 0 0 0 0 249.856v79.872a25.6 25.6 0 0 0 25.6 25.6 25.6 25.6 0 0 0 25.6-25.6V768a128 128 0 0 0 0-251.392z m0 194.56a82.432 82.432 0 0 1-24.576 4.096 67.584 67.584 0 0 1-27.136-5.12 76.8 76.8 0 0 1 0-143.872 67.584 67.584 0 0 1 27.136-5.12 82.432 82.432 0 0 1 24.576 4.096 76.8 76.8 0 0 1 0 145.92z" p-id="5866"></path><path d="M536.064 258.56V179.2A25.6 25.6 0 0 0 512 153.6a26.112 26.112 0 0 0-25.6 25.6v79.36a128 128 0 0 0 0 250.88v335.36a25.6 25.6 0 0 0 25.6 25.6 25.6 25.6 0 0 0 25.6-25.6V512a128 128 0 0 0 0-250.88z m0 201.728a73.216 73.216 0 0 1-51.2 0 81.408 81.408 0 0 1-46.592-102.4 77.824 77.824 0 0 1 46.592-51.2 73.216 73.216 0 0 1 51.2 0 81.408 81.408 0 0 1 46.592 102.4A77.824 77.824 0 0 1 536.064 460.8z" p-id="5867"></path></svg>