<?xml version="1.0" standalone="no"?><!DOCTYPE svg PUBLIC "-//W3C//DTD SVG 1.1//EN" "http://www.w3.org/Graphics/SVG/1.1/DTD/svg11.dtd"><svg t="1617773953673" class="icon" viewBox="0 0 1102 1024" version="1.1" xmlns="http://www.w3.org/2000/svg" p-id="6220" xmlns:xlink="http://www.w3.org/1999/xlink" width="215.234375" height="200"><defs><style type="text/css"></style></defs><path d="M160.689231 430.08h450.56a39.384615 39.384615 0 0 1 39.384615 39.384615V787.692308a39.384615 39.384615 0 0 1-39.384615 39.384615H160.689231a39.384615 39.384615 0 0 1-39.384616-39.384615v-318.227693a39.384615 39.384615 0 0 1 39.384616-39.384615z"  p-id="6221"></path><path d="M255.488 702.148923l223.074462 0.157539a29.538462 29.538462 0 0 0 0.078769-59.076924l-223.074462-0.157538a29.538462 29.538462 0 0 0-0.078769 59.076923z"  p-id="6222"></path><path d="M531.180308 926.326154h-421.415385c-23.709538 0-43.598769-20.873846-43.598769-47.458462V113.624615c0-26.545231 19.889231-47.458462 43.638154-47.458461h728.772923c23.748923 0 43.638154 20.873846 43.638154 47.458461V547.052308a33.083077 33.083077 0 1 0 66.166153 0V113.624615C948.381538 51.239385 899.584 0 838.577231 0H109.804308C48.758154 0 0 51.2 0 113.624615v765.243077C0 941.252923 48.797538 992.492308 109.804308 992.492308h421.415384a33.083077 33.083077 0 0 0 0-66.166154z"  p-id="6223"></path><path d="M789.661538 722.983385h71.286154a318.779077 318.779077 0 0 0-31.035077-40.96l27.884308-13.39077c11.972923 13.036308 23.236923 27.529846 33.870769 43.756308l-21.188923 10.594462h71.286154a350.916923 350.916923 0 0 0 28.947692-56.123077l32.452923 11.657846a273.998769 273.998769 0 0 1-26.466461 44.465231h64.196923V874.338462h-109.016615v27.844923h141.154461v31.783384h-141.154461v63.172923h-33.161847v-63.172923h-141.154461v-31.783384h141.154461v-27.844923H789.661538v-151.394462z m218.781539 121.737846v-32.452923h-76.563692v32.452923h76.563692z m-109.725539 0v-32.452923h-76.563692v32.452923h76.563692z m-76.563692-60.691693h76.563692V752.246154h-76.563692v31.783384z m109.725539-31.783384v31.783384h76.563692V752.246154h-76.563692zM632.989538 268.209231v338.747077h-41.90523v-31.31077H357.730462v32.216616H315.864615V268.209231h105.865847c8.822154-22.055385 15.872-45.449846 20.283076-69.277539l46.316308 6.183385a309.484308 309.484308 0 0 1-19.377231 63.094154h164.076308z m-275.259076 266.870154h233.353846v-97.949539H357.730462v97.949539z m0-137.649231h233.353846V307.908923H357.730462v89.521231z"  p-id="6224"></path></svg>